<svg xmlns="http://www.w3.org/2000/svg" width="5.68in" height="4in" viewBox="0 0 409.18 287.97">
  <path class="ak-logo-letter-a" d="M225.3,288H144.92l-5.78-36.55H86.73L80.38,288H0L69.19,0h95.12ZM130,189.68l-5-33.57a32.32,32.32,0,0,1-.75-5q-.38-4.1-3.92-32.45-.38-3.17-.93-8.67t-1.49-13.89l-2.42-27.23q-.38,3.92-1,8.77T113,88.22q-1.31,11.57-1.87,16t-.75,5.41L105,144.54l-7.83,45.13Z" style="fill: #2861d9"/>
  <polygon  class="ak-logo-letter-b" points="409.18 287.96 339.42 138.95 401.53 0 319.47 0 273.59 123.47 275.64 0 197.87 0 197.87 119.82 233.13 286.31 233.48 287.96 275.64 287.96 273.59 155.17 325.25 287.96 409.18 287.96" style="fill: #444444"/>
</svg>
